<svg id="图层_1" data-name="图层 1" xmlns="http://www.w3.org/2000/svg" viewBox="0 0 255 32"><defs><style>.cls-1{fill:#4db1a5;}.cls-2{fill:#16577b;}</style></defs><title>logo英文横版</title><path class="cls-1" d="M24.62,5.78,20.37,10a1.13,1.13,0,0,1-.79.33h-8.5a1.13,1.13,0,0,0-1.13,1.13v9.1a1.13,1.13,0,0,0,1.07,1h9.12a1.13,1.13,0,0,0,1.09-1.09V12a1.13,1.13,0,0,1,.33-.79l4.27-4.27h0a1.13,1.13,0,0,1,.75-.33h3.36a.69.69,0,0,0,.69-.69V1.65A.69.69,0,0,0,29.93,1H25.67a.69.69,0,0,0-.69.69V5a1.13,1.13,0,0,1-.36.81Z"/><path class="cls-2" d="M30.62,10.37H27.23A2.36,2.36,0,0,0,25,12.57V23.19a2.35,2.35,0,0,1-2.35,2.21H8.53A2.35,2.35,0,0,1,6.18,23h0V8.95h0A2.35,2.35,0,0,1,8.41,6.6H18.88a2.35,2.35,0,0,0,2.34-2.15V1H2.9A2.35,2.35,0,0,0,.55,3.23c0,.06,0,.13,0,.2V28.58c0,.06,0,.13,0,.2A2.35,2.35,0,0,0,2.9,31H28.27a2.35,2.35,0,0,0,2.35-2.35C30.62,28.63,30.62,10.37,30.62,10.37Z"/><path class="cls-2" d="M87.13,12.23v3.1h8.49V31h1.8a2.75,2.75,0,0,0,2.75-2.72v-13h8.49V12.22Z"/><path class="cls-2" d="M159.35,12.23v3.1h8.49V31h1.83a2.75,2.75,0,0,0,2.72-2.47V15.33h8.49V12.22Z"/><path class="cls-2" d="M138.81,12.23h-.25a5,5,0,0,0-5,5V18a5,5,0,0,0,5,5h11.92a2.48,2.48,0,1,1,0,5H133.6v.35A2.75,2.75,0,0,0,136.35,31h16.29a5,5,0,0,0,5-5v-.82a5,5,0,0,0-5-5H140.47l-.16,0h0a2.48,2.48,0,0,1,.46-4.91h16.89V12.22Z"/><path class="cls-2" d="M132.74,31,122.21,12.23h-5.74L105.94,31h4.73c.22-.36,7.56-13.41,8.67-15.38,1.11,2,8.45,15,8.67,15.38Z"/><path class="cls-2" d="M89.92,31,79.39,12.23H73.65L63.12,31h4.73c.22-.36,7.56-13.41,8.67-15.38,1.11,2,8.45,15,8.67,15.38Z"/><path class="cls-2" d="M232,31l-4.58-8.16h.05a5.12,5.12,0,0,0,3.79-4.94v-.59a5.12,5.12,0,0,0-4-5l-.2,0h0a5.81,5.81,0,0,0-.93-.07H209V31h1.83a2.75,2.75,0,0,0,2.72-2.4V22.91h8.74L226.82,31ZM213.52,19.92v-4.6H224.2a2.3,2.3,0,1,1,0,4.6H213.52Z"/><path class="cls-2" d="M63.54,25.24V18a5.8,5.8,0,0,0-5.8-5.8H38.17V31H57.75A5.8,5.8,0,0,0,63.54,25.24Zm-8.85,2.69h-12V15.33H54.54A4.51,4.51,0,0,1,59,19.6c0,.05,0,.1,0,.16s0,.06,0,.09h0v3.59h0A4.51,4.51,0,0,1,54.69,27.93Z"/><path class="cls-2" d="M249,12.23c-.81,1-4.77,6-4.77,6s-4.39-5.42-4.84-6h-5.48l8.25,10.32V31h1.42a2.74,2.74,0,0,0,2.73-2.52v-6l8.19-10.27Z"/><path class="cls-1" d="M206.09,14.92a2.68,2.68,0,0,0-2.68-2.68h-17a2.68,2.68,0,0,0-2.68,2.68s0,0,0,.07,0,0,0,.06V28.21s0,0,0,.06,0,0,0,.07A2.68,2.68,0,0,0,186.42,31h17a2.68,2.68,0,0,0,2.68-2.68s0,0,0-.06,0,0,0-.06V15s0,0,0-.06S206.09,14.94,206.09,14.92Z"/></svg>