<?xml version="1.0" encoding="utf-8"?>
<!-- Generator: Adobe Illustrator 22.1.0, SVG Export Plug-In . SVG Version: 6.00 Build 0)  -->
<svg version="1.1" id="图层_1" xmlns="http://www.w3.org/2000/svg" xmlns:xlink="http://www.w3.org/1999/xlink" x="0px" y="0px"
	 viewBox="0 0 212.6 170.1" style="enable-background:new 0 0 212.6 170.1;" xml:space="preserve">
<style type="text/css">
	.st0{fill:#C5E7F9;}
</style>
<g>
	<path class="st0" d="M34.7,42.1c2.9-2.7,5.7-5.4,8.7-8c13.7-11.5,29.4-19.2,46.7-24c7-1.9,14.2-3.3,21.4-4.1
		c7.6-0.8,15.2-1,22.8-0.5c12.6,0.8,24.8,3.4,36.5,8.4c10.8,4.6,20.3,10.9,28.1,19.8c6.5,7.4,10.9,15.8,12.7,25.4
		c2.2,11.2,0.7,22-3.6,32.4c-3.8,9.1-9.4,17-16.2,24c-3.6,3.7-7.5,7.2-11.7,10.3c-0.2,0.2-0.4,0.3-0.6,0.5c2.3-3.1,4.7-6,6.8-9.2
		c5.2-7.7,8.8-16,10.3-25.2c2.3-14-0.5-26.9-8.4-38.7c-6.4-9.5-15-16.6-25-22c-9.3-5.1-19.3-8.4-29.8-10.3c-6.7-1.2-13.5-1.9-20.4-2
		c-21.1-0.3-41.2,4-60.2,13c-6,2.8-11.8,6.2-17.2,10c-0.2,0.1-0.4,0.3-0.6,0.4C34.9,42.3,34.8,42.2,34.7,42.1z"/>
	<path class="st0" d="M33.2,43.7c-5.3,6.2-9.8,12.9-13,20.5c-2.9,6.7-4.6,13.7-4.8,21c-0.5,14,4.1,26.2,13,36.8
		c8.3,9.9,19,16.7,30.9,21.5c8,3.2,16.4,5.3,24.9,6.5c7.3,1,14.6,1.4,21.9,1.1c18.5-0.7,36.2-4.8,52.9-12.6
		c6.3-2.9,12.3-6.4,18-10.4c0.2-0.1,0.4-0.3,0.8-0.3c-1.5,1.5-3,3.1-4.6,4.6c-14.4,13.4-31.5,22.2-50.4,27.5
		c-7.4,2.1-15,3.5-22.7,4.2c-4.7,0.4-9.3,0.7-14,0.7c-14.6,0-28.8-2.3-42.4-7.8c-9.4-3.8-18-8.8-25.4-15.8
		c-9.2-8.6-15.5-19-17.6-31.5C-1.2,98.4,0.6,87.5,5.3,77c3.7-8.4,9-15.8,15.5-22.3c2.3-2.4,4.8-4.6,7.3-6.8
		C29.7,46.4,31.5,45.1,33.2,43.7z"/>
	<path class="st0" d="M78,56c6,0,12,0.1,18,0c2.8-0.1,5.2,2.1,4.5,5.5c-0.5,2.4-0.9,4.9-1.3,7.4c-0.2,1.3,0.1,1.7,1.5,1.7
		c0.5,0,1.1,0,1.6,0c0.9,0,1.3,0.5,1.2,1.4c-0.2,1.4-0.5,2.9-0.7,4.3c-0.1,0.6-0.5,0.8-1.1,0.8c-0.9,0-1.8,0-2.7,0
		c-0.8,0-1.3,0.4-1.5,1.2c-0.4,2.3-0.8,4.5-1.2,6.7c-0.9,4.6-4.1,7.2-8.8,7.2c-3.5,0-7,0-10.4,0c-1.3,0-1.5,0.2-1.8,1.4
		c-0.8,4.1-2,8-4.1,11.6c-3.2,5.5-8,8.9-14.4,10c-0.6,0.1-1.2,0.1-1.3-0.5c-0.1-0.4,0-1,0.3-1.2c4.7-4.1,7.3-9.5,9.2-15.3
		c0.5-1.4,0.8-2.8,1.1-4.2c0.3-1.2-0.2-1.7-1.4-1.7c-3.7,0-7.3,0-11,0c-1.5,0-1.9-0.4-1.6-1.8c0.2-1.1,0.4-2.3,0.6-3.4
		c0.2-1.2,0.3-1.3,1.6-1.3c3.9,0,7.7,0,11.6,0c1.4,0,1.6-0.2,1.8-1.5c0.3-1.8,0.6-3.6,0.9-5.4c0.2-1.2-0.2-1.8-1.4-1.8
		c-3.6,0-7.3,0-10.9,0c-1.6,0-1.8-0.2-1.6-1.8c0.2-1.1,0.4-2.3,0.6-3.4c0.2-1,0.5-1.3,1.6-1.3c4,0,7.9,0,11.9,0
		c1.2,0,1.4-0.2,1.6-1.4c0.3-1.6,0.5-3.1,0.8-4.6c0.3-1.6-0.1-2-1.8-2c-3.6,0-7.2,0-10.8,0c-1.3,0-1.6-0.4-1.4-1.6
		c0.2-1.3,0.5-2.5,0.7-3.8c0.1-0.8,0.5-1.1,1.3-1.1c2.1,0,4.1,0,6.2,0C69.6,56,73.8,56,78,56z M83.3,77.1c-1.2,0-2.4,0-3.6,0
		c-1.1,0-1.4,0.3-1.6,1.3c-0.3,1.9-0.7,3.7-1,5.6c-0.2,1.2,0.2,1.7,1.4,1.7c2.1,0,4.2,0,6.3,0c1.7,0,2.4-0.6,2.7-2.3
		c0.3-1.6,0.5-3.1,0.8-4.6c0.2-1.1-0.2-1.7-1.4-1.7C85.7,77.1,84.5,77.1,83.3,77.1z M84.7,70.6c1.3,0,2.6,0,3.9,0
		c0.8,0,1.2-0.3,1.3-1c0.3-1.9,0.7-3.7,1-5.6c0.1-0.9-0.3-1.5-1.2-1.5c-2.6,0-5.2,0-7.7,0c-0.7,0-1.1,0.3-1.3,1
		c-0.3,1.9-0.7,3.8-1,5.7c-0.1,0.9,0.3,1.4,1.3,1.4C82.2,70.6,83.5,70.6,84.7,70.6z"/>
	<path class="st0" d="M133.5,56c5,0,9.9,0,14.9,0c1.7,0,1.9,0.2,1.6,1.9c-0.2,1.1-0.4,2.2-0.6,3.3c-0.1,0.9-0.6,1.3-1.5,1.2
		c-3,0-5.9,0-8.9,0c-1.3,0-1.6,0.3-1.8,1.5c-0.3,1.6-0.6,3.2-0.9,4.7c-0.3,1.4,0.1,1.8,1.5,1.8c3.1,0,6.2,0,9.4,0
		c1.3,0,1.7,0.5,1.5,1.7c-0.2,1.2-0.5,2.4-0.6,3.6c-0.1,0.9-0.5,1.2-1.4,1.2c-3.4,0-6.8,0-10.2,0c-1.3,0-1.6,0.3-1.8,1.5
		c-1.8,9.9-3.6,19.8-5.3,29.6c-0.3,1.6-0.5,3.2-0.8,4.7c-0.2,1.2-0.4,1.3-1.6,1.3c-2.3,0-4.5,0-6.8,0c-1.3,0-1.6-0.3-1.4-1.6
		c0.4-2.2,0.8-4.3,1.2-6.5c1.2-6.9,2.5-13.8,3.7-20.7c0.4-2.2,0.8-4.3,1.2-6.5c0.3-1.4-0.2-1.9-1.6-1.9c-3.3,0-6.5,0-9.8,0
		c-1.1,0-1.5-0.4-1.3-1.5c0.2-1.3,0.5-2.6,0.7-3.9c0.1-0.8,0.7-1,1.4-1c3.5,0,7,0,10.4-0.1c1.5,0,1.6-0.1,1.9-1.6
		c0.3-1.6,0.6-3.2,0.9-4.7c0.2-1.3-0.1-1.8-1.5-1.8c-2.7,0-5.3,0-8,0c-1.6,0-1.8-0.3-1.6-1.9c0.2-1.1,0.4-2.2,0.6-3.2
		c0.2-1.2,0.3-1.4,1.6-1.4C123.5,56,128.5,56,133.5,56z"/>
	<path class="st0" d="M45.3,76.2c0.8,0,1.6,0,2.4,0c1.2,0,1.5,0.4,1.3,1.6c-1.3,7.2-2.6,14.4-3.9,21.7c-0.8,4.5-1.6,9.1-2.4,13.6
		c-0.2,1.1-0.4,1.3-1.6,1.3c-2.2,0-4.4,0-6.7,0c-1.2,0-1.5-0.3-1.3-1.6c0.4-2.5,0.9-5,1.3-7.5c1.2-6.9,2.5-13.9,3.7-20.8
		c0-0.2,0-0.3,0-0.7c-0.3,0.3-0.5,0.4-0.8,0.6c-2.2,1.5-4.5,3-6.7,4.4c-0.5,0.3-1.1,0.4-1.5-0.2c-0.4-0.5-0.2-1,0.2-1.5
		c7.7-9.2,13-19.5,16.6-30.9c0.3-0.9,0.7-1.3,1.6-1.2c2.2,0.1,4.3,0,6.5,0c1.7,0,2,0.4,1.5,2c-2.3,6.5-5.5,12.5-9.6,18.1
		c-0.2,0.2-0.3,0.5-0.5,0.7C45.3,75.9,45.3,76,45.3,76.2z"/>
	<path class="st0" d="M174.8,54.8c1.1,0,2.3,0,3.4,0c0.9,0,1.3,0.5,1.1,1.4c-2.4,13.4-4.8,26.8-7.2,40.3c-0.4,2-0.7,4-1.1,6.1
		c-1.1,5.7-6.6,11.9-13,12.7c-0.4,0.1-1.1-0.1-1.3-0.5c-0.2-0.3,0-1,0.2-1.3c2.6-3.5,4.3-7.4,5.1-11.8c1.4-8.2,3-16.4,4.4-24.6
		c1.2-6.9,2.5-13.7,3.7-20.6c0.3-1.5,0.4-1.6,1.9-1.6C173,54.8,173.9,54.8,174.8,54.8z"/>
	<path class="st0" d="M158.9,65c1.1,0,2.2,0,3.3,0c0.9,0,1.3,0.5,1.1,1.4c-1.8,9.9-3.5,19.8-5.3,29.7c-0.2,1.3-0.4,1.5-1.8,1.5
		c-1.9,0-3.8,0-5.8,0c-1.5,0-1.8-0.3-1.5-1.8c0.7-3.8,1.4-7.6,2-11.4c1.1-5.9,2.1-11.7,3.2-17.6c0.3-1.7,0.3-1.7,2-1.7
		C157.1,65,158,65,158.9,65z"/>
	<path class="st0" d="M116.7,80.6c0.8,0,1.6,0,2.3,0c1.2,0,1.5,0.4,1.3,1.6c-0.3,1.6-0.6,3.2-0.9,4.7c-0.7,3.5-1.2,7-2.2,10.5
		c-1.5,5.5-5.1,9-10.7,10.5c-0.6,0.2-1.2,0.3-1.6-0.3c-0.4-0.6-0.1-1.1,0.3-1.6c2.7-3.1,4-6.9,4.9-10.8c1-4.3,1.7-8.6,2.6-12.9
		c0.3-1.5,0.4-1.6,1.9-1.6C115.3,80.6,116,80.6,116.7,80.6z"/>
	<path class="st0" d="M135.6,96.2c0.3-1.7,0.7-4.6,1.1-7.4c0.4-2.3,0.8-4.7,1.2-7c0.1-0.8,0.5-1.3,1.4-1.3c1.7,0,3.4,0,5,0
		c1,0,1.3,0.5,1.2,1.4c-0.7,4.2-1.5,8.5-2.2,12.7c-0.6,4-0.4,7.9,1.3,11.6c0.2,0.4,0.1,1-0.1,1.3c-0.2,0.3-0.9,0.4-1.3,0.3
		C138.2,106.6,135.6,103,135.6,96.2z"/>
</g>
</svg>
